<svg width="69" height="60" viewBox="0 0 69 60" fill="none" xmlns="http://www.w3.org/2000/svg">
<path fill-rule="evenodd" clip-rule="evenodd" d="M23.9275 15.4465H9.68286C9.68286 15.4465 10.3117 15.9964 10.3896 16.4237C10.5074 17.0728 10.2124 17.7184 10.2124 17.7184L2.77274 41.5273C2.77274 41.5273 2.44001 42.3896 2.02283 42.7745C1.68576 43.0858 1 43.3562 1 43.3562H11.448C11.448 43.3562 10.7593 43.0021 10.5661 42.5889C10.3951 42.2228 10.494 41.5574 10.494 41.5574L13.0768 32.6795C13.0768 32.6795 25.3842 34.4911 29.1153 25.2787C32.2487 17.5448 26.1008 15.4465 23.9275 15.4465ZM22.6198 24.8071C20.1055 32.1837 13.6401 30.8898 13.6401 30.8898L17.7169 17.6035H20.0899C20.0903 17.6035 25.2157 17.1906 22.6198 24.8071Z" fill="#304497"/>
<path fill-rule="evenodd" clip-rule="evenodd" d="M58.0008 26.4067C54.2871 27.0069 48.7264 29.0613 48.7264 29.0613L48.0772 31.8989C48.0772 31.8989 50.0163 30.9884 51.3259 30.6086C52.4763 30.2755 54.3375 30.0055 54.3375 30.0055L51.2048 41.2914C51.2048 41.2914 42.4081 43.2381 47.2519 28.2356C48.3237 24.9149 51.9935 19.5329 55.6945 18.3121C59.8514 16.941 64.1436 20.0823 64.1436 20.0823L65.3824 16.3654C65.3824 16.3654 60.7387 15.1469 57.7249 15.2734C51.7659 15.5235 47.8525 17.1001 43.7054 21.3861C38.4491 26.8199 38.925 34.8844 38.925 34.8844L36.9181 36.4516L34.9504 37.9884C34.9504 37.9884 33.6909 36.0609 33.2487 34.6782C32.8916 33.5633 32.7206 31.7228 32.7206 31.7228C32.7206 31.7228 36.0827 30.0439 37.8007 28.6488C41.2218 25.8699 39.9866 22.6249 37.7079 22.2951C35.0747 21.9138 33.7844 22.0881 31.8456 23.6285C28.8764 25.9881 28.7615 30.9497 28.7615 30.9497C28.7615 30.9497 19.0149 33.315 20.2421 40.3672C20.6049 42.4534 23.759 43.6999 26.3367 43.6524C30.3545 43.4748 33.0943 41.6738 33.0943 41.6738C33.0943 41.6738 35.5709 45.0964 41.7586 46.6078C49.7296 48.5545 57.7101 44.5364 57.7101 44.5364L58.178 43.2976C58.178 43.2976 52.2726 46.4309 45.568 45.1537C39.3411 43.9681 36.0834 39.8699 36.0834 39.8699C36.0834 39.8699 37.182 39.0254 37.8616 38.4571C38.469 37.9489 39.3893 37.1193 39.3893 37.1193C39.3893 37.1193 40.5865 40.8507 43.8279 42.3697C50.9685 45.7166 58.709 41.8231 58.709 41.8231L62.4915 29.2976C62.4915 29.2976 64.0729 29.1468 65.0867 29.1523C66.1965 29.1577 67.9254 29.3567 67.9254 29.3567L68.8101 26.0464C68.8097 26.0464 62.141 25.7373 58.0008 26.4067ZM28.1124 41.0555C26.5785 41.1519 24.8945 40.5237 24.5075 39.1029C23.4451 35.203 28.9971 33.2563 28.9971 33.2563C28.9971 33.2563 29.4049 35.4534 29.9312 36.7702C30.4516 38.0729 31.6521 39.9282 31.6521 39.9282C31.6521 39.9282 29.9525 40.9409 28.1124 41.0555ZM36.3186 24.0407C37.3657 24.1943 37.0917 26.5249 35.6539 27.5669C34.5325 28.7594 32.6021 29.2972 32.6021 29.2972C32.6021 29.2972 32.365 23.4607 36.3186 24.0407Z" fill="#304497"/>
</svg>
