<svg width="64" height="64" viewBox="0 0 64 64" fill="none" xmlns="http://www.w3.org/2000/svg">
<path fill-rule="evenodd" clip-rule="evenodd" d="M36.7654 59.7452C30.1986 55.4119 24.9313 50.5214 21.2709 43.7791C17.4746 36.7865 15.4843 28.9568 15.4805 21.0001C15.4805 21 15.4805 20.9999 15.4805 20.9997V16.6564C15.4805 15.9108 15.8951 15.2272 16.5563 14.8827L35.8367 4.83668C36.4157 4.53497 37.1056 4.53491 37.6847 4.83652L56.9743 14.883C57.6357 15.2275 58.0505 15.9112 58.0505 16.6568V20.9988C58.0451 28.9555 56.054 36.7851 52.2576 43.7778C48.5973 50.5198 43.3309 55.4107 36.7654 59.7452ZM37.4005 61.7201C37.2113 61.8424 36.9908 61.9075 36.7655 61.9075C36.5402 61.9075 36.3197 61.8424 36.1305 61.7201C29.1804 57.2014 23.4686 52.0188 19.5132 44.7333C15.5579 37.4478 13.4843 29.2901 13.4805 21.0001V16.6564C13.4805 15.1653 14.3098 13.798 15.6321 13.109L34.9125 3.06301C36.0706 2.45958 37.4504 2.45946 38.6086 3.06268L57.8982 13.1092C59.2209 13.7981 60.0505 15.1655 60.0505 16.6568V21.0001C60.0449 29.2897 57.9705 37.4468 54.0153 44.732C50.0601 52.0172 44.3493 57.2001 37.4005 61.7201Z" fill="#04454D"/>
<path d="M36.7648 61.9073C36.9901 61.9073 37.2106 61.8423 37.3998 61.72C44.3486 57.2 50.0595 52.0171 54.0146 44.7319C56.0095 41.0575 57.5259 37.1614 58.5397 33.1383C58.383 31.8107 57.5689 30.636 56.3544 30.0295L36.103 19.9163C34.9562 19.3436 33.6044 19.3552 32.4676 19.9475L14.208 29.4616C15.1292 34.7886 16.9152 39.949 19.5126 44.7332C23.4679 52.0187 29.1797 57.2013 36.1298 61.72C36.319 61.8423 36.5395 61.9073 36.7648 61.9073Z" fill="#04454D"/>
<path d="M27.4005 61.7201C27.2113 61.8424 26.9908 61.9074 26.7655 61.9074C26.5402 61.9074 26.3197 61.8424 26.1305 61.7201C19.1804 57.2014 13.4686 52.0188 9.51323 44.7333C5.55791 37.4478 3.48427 29.29 3.48047 21.0001V16.6563C3.48047 15.1653 4.30981 13.798 5.63213 13.109L24.9125 3.06296C26.0706 2.45954 27.4504 2.45942 28.6086 3.06264L47.8982 13.1091C49.2209 13.798 50.0505 15.1655 50.0505 16.6568V21.0001C50.0449 29.2897 47.9705 37.4468 44.0153 44.732C40.0601 52.0172 34.3493 57.2 27.4005 61.7201Z" fill="#08CF65"/>
<path fill-rule="evenodd" clip-rule="evenodd" d="M24 17C20.6863 17 18 19.6863 18 23V24C18 27.3137 20.6863 30 24 30H31C34.3137 30 37 27.3137 37 24V23C37 19.6863 34.3137 17 31 17H24ZM24.5 20C22.567 20 21 21.567 21 23.5C21 25.433 22.567 27 24.5 27H30.5C32.433 27 34 25.433 34 23.5C34 21.567 32.433 20 30.5 20H24.5Z" fill="white"/>
<path d="M26 28H29V48H26V28Z" fill="white"/>
<path d="M23 46H27V39H23V41H24V44H23V46Z" fill="white"/>
</svg>
