<svg width="120" height="70" viewBox="0 0 120 70" fill="none" xmlns="http://www.w3.org/2000/svg">
<path fill-rule="evenodd" clip-rule="evenodd" d="M12.8639 26.6791V30.2105C11.1801 29.5993 9.36168 29.2598 7.94732 29.2598C6.12887 29.2598 5.18597 29.803 5.18597 30.8217C5.18597 31.4329 5.59007 31.8404 6.86972 32.4516L10.2372 33.9456C12.9312 35.168 14.2782 36.9337 14.2782 39.2427C14.2782 42.842 11.1801 45.0831 6.33092 45.0831C4.57981 45.0831 2.49196 44.8115 0.336751 44.3361V40.6689C2.49196 41.2801 4.44511 41.6196 5.99417 41.6196C8.01467 41.6196 9.09228 41.0763 9.09228 39.9898C9.09228 39.3786 8.68818 38.9032 7.67792 38.4278L3.97366 36.7979C1.27965 35.5755 0 33.8777 0 31.5687C0 28.1732 2.96341 26 7.61057 26C9.22698 26 11.2475 26.2716 12.8639 26.6791Z" fill="#00A2B2"/>
<path fill-rule="evenodd" clip-rule="evenodd" d="M16.9043 26.3396H22.3597V44.7436H16.9043V26.3396Z" fill="#00A2B2"/>
<path fill-rule="evenodd" clip-rule="evenodd" d="M40.0726 26.3396V29.7352H31.8558V33.8778H39.0623V36.9338H31.8558V41.2122H40.2073V44.7436H26.5352V26.3396H40.0726Z" fill="#00A2B2"/>
<path fill-rule="evenodd" clip-rule="evenodd" d="M65.867 26.3396V44.7436H60.5463V32.6554L55.4277 44.8794H52.0602L46.9416 32.6554V44.7436H43.3047V26.3396H49.9724L54.6195 37.545L59.334 26.3396H65.867Z" fill="#00A2B2"/>
<path fill-rule="evenodd" clip-rule="evenodd" d="M83.5823 26.3396V29.7352H75.3656V33.8778H82.5721V36.9338H75.3656V41.2122H83.717V44.7436H70.0449V26.3396H83.5823Z" fill="#00A2B2"/>
<path fill-rule="evenodd" clip-rule="evenodd" d="M102.776 26.3396V44.7436H96.9843L90.4514 32.927V44.7436H86.8145V26.3396H92.7413L99.2069 38.0204V26.3396H102.776Z" fill="#00A2B2"/>
<path fill-rule="evenodd" clip-rule="evenodd" d="M118.603 26.6792V30.2106C116.919 29.5994 115.101 29.2598 113.687 29.2598C111.868 29.2598 110.858 29.8031 110.858 30.8218C110.858 31.5009 111.262 31.8404 112.542 32.4516L115.909 33.9457C118.603 35.1681 119.95 36.9338 119.95 39.3107C119.95 42.8421 116.852 45.1511 112.003 45.1511C110.252 45.1511 108.164 44.8794 106.009 44.4041V40.7368C108.164 41.348 110.117 41.6197 111.666 41.6197C113.687 41.6197 114.764 41.0764 114.764 40.0577C114.764 39.3786 114.36 38.9711 113.35 38.4958L109.646 36.8659C106.884 35.6435 105.672 34.0136 105.672 31.6367C105.672 28.2411 108.635 26.068 113.282 26.068C114.966 26 116.987 26.2717 118.603 26.6792Z" fill="#00A2B2"/>
</svg>
